<?xml version="1.0" standalone="no"?>
<!DOCTYPE svg PUBLIC "-//W3C//DTD SVG 20010904//EN"
 "http://www.w3.org/TR/2001/REC-SVG-20010904/DTD/svg10.dtd">
<svg version="1.0" xmlns="http://www.w3.org/2000/svg"
 width="512.000000pt" height="512.000000pt" viewBox="0 0 512.000000 512.000000"
 preserveAspectRatio="xMidYMid meet">
<metadata>
Created by potrace 1.11, written by Peter Selinger 2001-2013
</metadata>
<g transform="translate(0.000000,512.000000) scale(0.100000,-0.100000)"
fill="#000000" stroke="none">
<path d="M2340 4393 c-117 -202 -226 -393 -243 -423 -16 -30 -36 -62 -43 -71
-8 -8 -14 -18 -14 -21 0 -6 -231 -408 -315 -548 -18 -30 -44 -75 -57 -100 -38
-68 -267 -463 -278 -480 -6 -8 -13 -22 -17 -30 -4 -8 -18 -33 -32 -55 -14 -22
-33 -53 -42 -70 -9 -16 -25 -46 -35 -65 -19 -34 -55 -94 -82 -135 -6 -11 -15
-27 -19 -35 -4 -8 -61 -107 -126 -220 -66 -113 -131 -225 -145 -250 -13 -25
-39 -70 -57 -100 -84 -140 -315 -542 -315 -548 0 -3 -6 -13 -14 -21 -8 -9 -26
-38 -40 -66 -15 -27 -124 -219 -245 -425 -120 -206 -217 -376 -215 -378 3 -5
5105 -4 5109 0 1 2 -74 134 -167 293 -93 160 -198 342 -234 405 -72 124 -75
130 -154 265 -29 50 -61 106 -72 125 -11 19 -62 107 -113 195 -51 88 -102 176
-112 195 -11 19 -96 165 -188 324 -92 159 -175 304 -186 322 -10 18 -29 51
-43 73 -15 22 -26 43 -26 46 0 3 -11 24 -26 46 -14 22 -33 55 -43 72 -10 18
-67 118 -128 222 -60 105 -144 249 -185 320 -42 72 -99 171 -128 220 -29 50
-62 108 -75 130 -12 22 -145 252 -295 510 -326 562 -306 528 -341 590 -15 27
-31 51 -37 53 -5 1 -105 -163 -222 -365z m321 -455 c52 -90 99 -170 104 -180
6 -9 17 -29 26 -45 8 -15 48 -84 88 -153 40 -69 183 -316 319 -550 135 -234
256 -442 269 -462 12 -21 23 -39 23 -41 0 -2 37 -67 82 -143 44 -76 94 -164
111 -194 16 -30 36 -62 43 -71 8 -8 14 -18 14 -21 0 -4 62 -114 138 -245 77
-131 150 -258 164 -283 14 -25 121 -209 238 -410 252 -434 236 -405 218 -394
-23 14 -567 363 -683 438 -60 40 -201 130 -312 201 -112 72 -266 171 -343 220
-77 50 -181 117 -232 150 -51 32 -155 99 -230 148 l-138 89 0 1054 c0 580 2
1054 4 1054 2 0 46 -73 97 -162z"/>
</g>
</svg>
